<svg width="186" height="33" viewBox="0 0 186 33" fill="none" xmlns="http://www.w3.org/2000/svg">
<rect width="32.9715" height="32.9715" rx="7.758" fill="#75ece2"/>
<path d="M4.84741 12.3907C4.84741 11.6766 5.42631 11.0977 6.14041 11.0977H13.0364C13.7505 11.0977 14.3294 11.6766 14.3294 12.3907C14.3294 13.1048 13.7505 13.6837 13.0364 13.6837H6.14041C5.42631 13.6837 4.84741 13.1048 4.84741 12.3907Z" fill="#020452"/>
<path d="M6.57166 8.08121C6.57166 7.3671 7.15055 6.78821 7.86466 6.78821H18.2087C18.9228 6.78821 19.5017 7.3671 19.5017 8.08121C19.5017 8.79531 18.9228 9.37421 18.2087 9.37421H7.86466C7.15055 9.37421 6.57166 8.79531 6.57166 8.08121Z" fill="#020452"/>
<path fill-rule="evenodd" clip-rule="evenodd" d="M6.14066 11.0982C5.42655 11.0982 4.84766 11.6771 4.84766 12.3912C4.84766 13.1053 5.42655 13.6842 6.14066 13.6842H14.9762C15.6903 13.6842 16.2692 13.1053 16.2692 12.3912C16.2692 11.6771 15.6903 11.0982 14.9762 11.0982H6.14066ZM8.72666 15.4082C8.01255 15.4082 7.43366 15.9871 7.43366 16.7012C7.43366 17.4153 8.01255 17.9942 8.72666 17.9942H16.7002C17.4143 17.9942 17.9932 17.4153 17.9932 16.7012C17.9932 15.9871 17.4143 15.4082 16.7002 15.4082H8.72666Z" fill="#020452"/>
<path d="M10.0195 21.0117C10.0195 20.2976 10.5984 19.7188 11.3125 19.7188H19.286C20.0001 19.7188 20.579 20.2976 20.579 21.0117C20.579 21.7259 20.0001 22.3047 19.286 22.3047H11.3125C10.5984 22.3047 10.0195 21.7259 10.0195 21.0117Z" fill="#020452"/>
<rect x="12.6055" y="24.0283" width="7.758" height="2.586" rx="1.293" fill="#020452"/>
<path fill-rule="evenodd" clip-rule="evenodd" d="M18.4409 9.37408H15.1934V6.78809H18.4409C23.7884 6.78809 28.1234 11.2263 28.1234 16.7011C28.1234 22.1759 23.7884 26.6141 18.4409 26.6141H15.1934V24.0281H18.4409C22.3934 24.0281 25.5975 20.7477 25.5975 16.7011C25.5975 12.6545 22.3934 9.37408 18.4409 9.37408Z" fill="#020452"/>
<path d="M43.7188 5.64743V28.1011C43.7188 28.2115 43.6731 28.3175 43.5918 28.3956C43.5104 28.4737 43.4001 28.5176 43.285 28.5176H39.2756C39.1605 28.5176 39.0502 28.4737 38.9689 28.3956C38.8875 28.3175 38.8418 28.2115 38.8418 28.1011V5.64743C38.8418 5.53695 38.8875 5.43099 38.9689 5.35287C39.0502 5.27474 39.1605 5.23085 39.2756 5.23085H43.2664C43.325 5.22844 43.3834 5.23743 43.4382 5.25729C43.493 5.27714 43.543 5.30744 43.5853 5.34637C43.6275 5.3853 43.6612 5.43204 43.6841 5.48378C43.7071 5.53552 43.7189 5.59119 43.7188 5.64743Z" fill="#020452"/>
<path d="M62.1358 11.8539C63.5425 13.2465 64.2614 15.1865 64.2614 17.686V28.1183C64.2614 28.2288 64.2157 28.3348 64.1343 28.4129C64.053 28.491 63.9426 28.5349 63.8276 28.5349H59.8367C59.7217 28.5349 59.6113 28.491 59.53 28.4129C59.4486 28.3348 59.4029 28.2288 59.4029 28.1183V18.3287C59.4894 17.0958 59.0815 15.8779 58.2627 14.9247C57.8648 14.5252 57.3823 14.2122 56.8478 14.0069C56.3133 13.8016 55.7392 13.7087 55.1642 13.7344C54.5759 13.7059 53.988 13.7972 53.439 14.0023C52.89 14.2075 52.3925 14.5218 51.9789 14.9247C51.1447 15.8664 50.7246 17.0829 50.8077 18.3168V28.1183C50.8077 28.2288 50.762 28.3348 50.6807 28.4129C50.5993 28.491 50.489 28.5349 50.3739 28.5349H46.3459C46.2308 28.5349 46.1205 28.491 46.0392 28.4129C45.9578 28.3348 45.9121 28.2288 45.9121 28.1183V10.4554C45.9121 10.3449 45.9578 10.2389 46.0392 10.1608C46.1205 10.0827 46.2308 10.0388 46.3459 10.0388H50.3367C50.4513 10.0403 50.5607 10.0847 50.6417 10.1625C50.7227 10.2403 50.7689 10.3454 50.7705 10.4554V11.7706C50.7723 11.8105 50.7859 11.8491 50.8098 11.8818C50.8338 11.9145 50.867 11.9398 50.9055 11.9549C50.9441 11.9699 50.9863 11.974 51.0272 11.9667C51.0681 11.9593 51.1059 11.9408 51.1362 11.9134C51.736 11.3036 52.451 10.8089 53.2431 10.4554C54.7053 9.82745 56.3272 9.62527 57.9079 9.87385C59.4885 10.1224 60.9585 10.8109 62.1358 11.8539Z" fill="#020452"/>
<path d="M81.1358 22.5604C82.5239 21.2273 83.218 19.3527 83.218 16.9127C83.218 14.4728 82.5239 12.6041 81.1358 11.2294C79.7477 9.8547 77.7708 9.16437 75.2363 9.16437H72.2183C72.1038 9.16591 71.9944 9.21029 71.9134 9.28809C71.8324 9.36588 71.7862 9.47095 71.7846 9.58095V24.1434C71.7862 24.2534 71.8324 24.3584 71.9134 24.4362C71.9944 24.514 72.1038 24.5584 72.2183 24.56H75.2363C77.7708 24.56 79.7477 23.8934 81.1358 22.5604ZM82.1335 6.6649C84.0142 7.57845 85.5742 9.0021 86.6201 10.7593C87.7126 12.6415 88.2604 14.7704 88.2065 16.9246C88.2611 19.0658 87.713 21.1814 86.6201 23.0484C85.566 24.7919 84.0074 26.204 82.1335 27.113C80.0447 28.1027 77.7384 28.5946 75.4098 28.5472H67.3537C67.2967 28.5472 67.2403 28.5364 67.1877 28.5155C67.1351 28.4946 67.0873 28.4639 67.047 28.4252C67.0067 28.3865 66.9747 28.3406 66.9529 28.29C66.9311 28.2395 66.9199 28.1853 66.9199 28.1306V5.64725C66.9199 5.53677 66.9656 5.43081 67.047 5.35269C67.1283 5.27456 67.2387 5.23067 67.3537 5.23067H75.4098C77.7384 5.18324 80.0447 5.67519 82.1335 6.6649Z" fill="#020452"/>
<path d="M103.822 17.5379C103.879 17.5379 103.935 17.516 103.975 17.4769C104.016 17.4379 104.039 17.3849 104.039 17.3297C104.022 16.8194 103.894 16.3183 103.663 15.8589C103.431 15.3995 103.101 14.9922 102.694 14.6635C101.791 13.9324 100.64 13.5468 99.4593 13.5804C98.3474 13.5525 97.2647 13.9239 96.4228 14.6219C95.6276 15.3294 95.1073 16.2761 94.9479 17.3059C94.9435 17.3362 94.9458 17.3671 94.9546 17.3965C94.9634 17.4259 94.9785 17.4533 94.9989 17.4768C95.0193 17.5003 95.0446 17.5195 95.0732 17.5331C95.1017 17.5467 95.1329 17.5544 95.1648 17.5558H103.841L103.822 17.5379ZM108.78 20.6861H95.1462C95.1158 20.685 95.0855 20.6903 95.0574 20.7015C95.0293 20.7128 95.0041 20.7297 94.9835 20.7512C94.9629 20.7727 94.9474 20.7982 94.938 20.826C94.9287 20.8538 94.9257 20.8832 94.9293 20.9122C95.0251 22.0181 95.5334 23.0536 96.3608 23.8283C97.2266 24.58 98.3606 24.9828 99.5274 24.9531C100.308 24.9989 101.086 24.8216 101.762 24.4435C102.438 24.0654 102.982 23.5034 103.326 22.8285C103.347 22.7976 103.375 22.7721 103.409 22.7545C103.442 22.7368 103.48 22.7275 103.518 22.7273H108.333C108.367 22.7272 108.401 22.7346 108.432 22.7489C108.463 22.7633 108.489 22.7842 108.51 22.81C108.531 22.8359 108.546 22.866 108.553 22.8981C108.56 22.9302 108.559 22.9634 108.55 22.9951C107.981 24.6419 106.9 26.0813 105.452 27.1193C103.769 28.302 101.723 28.9115 99.639 28.851C97.9074 28.8705 96.1998 28.4606 94.6814 27.6608C93.2224 26.882 92.025 25.7197 91.2297 24.3103C90.3817 22.772 89.9552 21.0517 89.9903 19.3114C89.9612 17.5584 90.3871 15.8261 91.2297 14.2708C91.9981 12.863 93.1814 11.7038 94.6318 10.9381C96.1711 10.1785 97.8754 9.77882 99.6059 9.77158C101.336 9.76435 103.044 10.1498 104.59 10.8965C106.02 11.6263 107.189 12.7495 107.949 14.122C108.747 15.5993 109.136 17.2492 109.077 18.9127C109.078 19.456 109.041 19.9988 108.965 20.5373C108.963 20.5598 108.956 20.5816 108.945 20.6015C108.934 20.6213 108.918 20.6387 108.9 20.6526C108.881 20.6665 108.86 20.6767 108.837 20.6824C108.814 20.6882 108.79 20.6894 108.767 20.6861H108.78Z" fill="#020452"/>
<path d="M158.913 17.5379C158.971 17.5379 159.026 17.516 159.067 17.4769C159.107 17.4379 159.13 17.3849 159.13 17.3297C159.114 16.8194 158.986 16.3183 158.754 15.8589C158.522 15.3995 158.192 14.9922 157.785 14.6635C156.883 13.9324 155.731 13.5468 154.551 13.5804C153.439 13.5525 152.356 13.9239 151.514 14.6219C150.719 15.3294 150.199 16.2761 150.039 17.3059C150.035 17.3362 150.037 17.3671 150.046 17.3965C150.055 17.4259 150.07 17.4533 150.09 17.4768C150.111 17.5003 150.136 17.5195 150.164 17.5331C150.193 17.5467 150.224 17.5544 150.256 17.5558H158.932L158.913 17.5379ZM163.871 20.6861H150.237C150.207 20.685 150.177 20.6903 150.149 20.7015C150.121 20.7128 150.095 20.7297 150.075 20.7512C150.054 20.7727 150.039 20.7982 150.029 20.826C150.02 20.8538 150.017 20.8832 150.021 20.9122C150.116 22.0181 150.625 23.0536 151.452 23.8283C152.318 24.58 153.452 24.9828 154.619 24.9531C155.4 24.9989 156.177 24.8216 156.853 24.4435C157.529 24.0654 158.074 23.5034 158.417 22.8285C158.438 22.7976 158.467 22.7721 158.5 22.7545C158.534 22.7368 158.571 22.7275 158.61 22.7273H163.425C163.459 22.7272 163.492 22.7346 163.523 22.7489C163.554 22.7633 163.581 22.7842 163.602 22.81C163.623 22.8359 163.637 22.866 163.644 22.8981C163.651 22.9302 163.65 22.9634 163.642 22.9951C163.072 24.6419 161.991 26.0813 160.543 27.1193C158.86 28.302 156.815 28.9115 154.73 28.851C152.988 28.8757 151.269 28.4656 149.742 27.6608C148.271 26.8865 147.063 25.7238 146.259 24.3103C145.411 22.772 144.984 21.0517 145.02 19.3114C144.99 17.5584 145.416 15.8261 146.259 14.2708C147.027 12.863 148.211 11.7038 149.661 10.9381C151.2 10.1785 152.905 9.77882 154.635 9.77158C156.366 9.76435 158.074 10.1498 159.62 10.8965C161.053 11.6244 162.228 12.7478 162.991 14.122C163.813 15.5932 164.225 17.2435 164.187 18.9127C164.188 19.456 164.151 19.9988 164.075 20.5373C164.073 20.5617 164.066 20.5853 164.053 20.6066C164.041 20.6279 164.024 20.6463 164.003 20.6605C163.982 20.6747 163.959 20.6843 163.934 20.6887C163.909 20.6932 163.883 20.6923 163.858 20.6861H163.871Z" fill="#020452"/>
<path d="M125.229 16.3294C124.8 15.5589 124.156 14.9181 123.37 14.4786C122.599 14.0738 121.732 13.8686 120.854 13.8835C119.983 13.881 119.127 14.1029 118.375 14.5262C117.587 14.9841 116.944 15.6406 116.516 16.4246C116.043 17.3222 115.797 18.314 115.797 19.3199C115.797 20.3257 116.043 21.3175 116.516 22.2151C117.095 23.241 118.046 24.0272 119.188 24.4243C120.33 24.8214 121.585 24.8019 122.713 24.3694C123.775 23.9344 124.649 23.1637 125.192 22.1853C125.686 21.2795 125.931 20.2677 125.905 19.2455C125.959 18.2326 125.726 17.2244 125.229 16.3294ZM118.375 10.5806C119.543 10.0087 120.839 9.72248 122.149 9.74746C123.724 9.74149 125.27 10.1534 126.617 10.9377C127.966 11.7462 129.061 12.892 129.784 14.2525C130.592 15.8023 130.995 17.5184 130.955 19.2514C130.991 20.9899 130.589 22.7109 129.784 24.2682C129.071 25.6573 127.976 26.8325 126.617 27.6663C125.275 28.4618 123.726 28.8746 122.149 28.8565C120.839 28.8758 119.543 28.5878 118.375 28.0174C117.542 27.6 116.793 27.0438 116.163 26.3749C116.134 26.3431 116.096 26.3203 116.053 26.3092C116.011 26.2981 115.966 26.2993 115.924 26.3127C115.883 26.326 115.846 26.3509 115.819 26.3842C115.792 26.4176 115.776 26.4578 115.772 26.4999V28.1246C115.771 28.2346 115.725 28.3396 115.644 28.4174C115.563 28.4952 115.453 28.5396 115.339 28.5411H111.348C111.233 28.5411 111.122 28.4972 111.041 28.4191C110.96 28.341 110.914 28.235 110.914 28.1246V4.24861C110.914 4.13813 110.96 4.03217 111.041 3.95404C111.122 3.87592 111.233 3.83203 111.348 3.83203H115.339C115.453 3.83357 115.563 3.87795 115.644 3.95575C115.725 4.03354 115.771 4.13861 115.772 4.24861V12.122C115.772 12.1657 115.787 12.2083 115.813 12.2437C115.84 12.2792 115.878 12.3057 115.921 12.3196C115.964 12.3334 116.011 12.3338 116.054 12.3208C116.098 12.3077 116.136 12.2819 116.163 12.2469C116.777 11.5548 117.529 10.9881 118.375 10.5806Z" fill="#020452"/>
<path d="M170.948 19.2276C170.923 20.2484 171.171 21.2584 171.667 22.1615C172.205 23.1442 173.081 23.9179 174.146 24.3515C174.645 24.5629 175.181 24.6821 175.726 24.7026C176.713 24.7751 177.698 24.5504 178.546 24.0599C179.345 23.6059 179.999 22.949 180.436 22.1615C180.927 21.2719 181.172 20.276 181.148 19.2693C181.175 18.2603 180.93 17.2619 180.436 16.3711C180.001 15.5841 179.346 14.9288 178.546 14.4786C177.796 14.0505 176.939 13.8263 176.067 13.8299C175.177 13.82 174.301 14.0355 173.526 14.4548C172.738 14.8954 172.095 15.5385 171.667 16.3116C171.182 17.2123 170.935 18.2137 170.948 19.2276ZM180.752 12.2469C180.781 12.2787 180.819 12.3016 180.861 12.3127C180.904 12.3237 180.948 12.3225 180.99 12.3092C181.032 12.2958 181.069 12.2709 181.096 12.2376C181.123 12.2043 181.139 12.1641 181.142 12.122V4.24861C181.144 4.13861 181.19 4.03354 181.271 3.95575C181.352 3.87795 181.461 3.83357 181.576 3.83203H185.567C185.682 3.83203 185.792 3.87592 185.873 3.95404C185.955 4.03217 186.001 4.13813 186.001 4.24861V28.1186C186.001 28.2291 185.955 28.335 185.873 28.4132C185.792 28.4913 185.682 28.5352 185.567 28.5352H181.582C181.467 28.5352 181.357 28.4913 181.275 28.4132C181.194 28.335 181.148 28.2291 181.148 28.1186V26.4939C181.145 26.4518 181.129 26.4116 181.102 26.3783C181.075 26.345 181.038 26.3201 180.996 26.3067C180.955 26.2934 180.91 26.2922 180.867 26.3032C180.825 26.3143 180.787 26.3372 180.758 26.369C180.142 27.0563 179.387 27.617 178.539 28.0174C177.368 28.5774 176.073 28.8552 174.765 28.8268C173.188 28.8536 171.635 28.4401 170.297 27.6366C168.939 26.8044 167.844 25.6313 167.131 24.2444C166.325 22.6852 165.923 20.9621 165.96 19.2217C165.921 17.4887 166.323 15.7729 167.131 14.2227C167.832 12.8579 168.921 11.7115 170.272 10.9164C171.623 10.1212 173.181 9.70977 174.765 9.7296C176.076 9.70164 177.373 9.988 178.539 10.5628C179.383 10.9825 180.134 11.5543 180.752 12.2469Z" fill="#020452"/>
<path d="M139.265 13.8716C139.236 13.8698 139.207 13.874 139.18 13.8839C139.153 13.8937 139.129 13.909 139.108 13.9287C139.088 13.9484 139.072 13.9721 139.061 13.9981C139.051 14.0242 139.047 14.0521 139.049 14.0799V22.8102C139.021 23.0551 139.05 23.3028 139.132 23.5361C139.214 23.7694 139.349 23.9827 139.526 24.1611C139.982 24.4801 140.544 24.6282 141.106 24.5777H142.928C143.043 24.5777 143.153 24.6215 143.235 24.6997C143.316 24.7778 143.362 24.8837 143.362 24.9942V28.1007C143.362 28.2112 143.316 28.3172 143.235 28.3953C143.153 28.4734 143.043 28.5173 142.928 28.5173H140.307C136.204 28.5173 134.151 26.601 134.147 22.7685V14.0799C134.149 14.0521 134.144 14.0242 134.134 13.9981C134.124 13.9721 134.108 13.9484 134.087 13.9287C134.067 13.909 134.042 13.8937 134.015 13.8839C133.988 13.874 133.959 13.8698 133.93 13.8716H132.281C132.166 13.8716 132.056 13.8277 131.975 13.7496C131.893 13.6714 131.848 13.5655 131.848 13.455V10.4794C131.848 10.3689 131.893 10.263 131.975 10.1849C132.056 10.1067 132.166 10.0628 132.281 10.0628H133.93C133.959 10.0646 133.988 10.0604 134.015 10.0505C134.042 10.0407 134.067 10.0254 134.087 10.0057C134.108 9.986 134.124 9.96234 134.134 9.93628C134.144 9.91022 134.149 9.88236 134.147 9.85455V5.89705C134.147 5.78656 134.192 5.68061 134.274 5.60248C134.355 5.52436 134.465 5.48047 134.581 5.48047H138.615C138.73 5.48047 138.84 5.52436 138.921 5.60248C139.003 5.68061 139.049 5.78656 139.049 5.89705V9.83075C139.047 9.85855 139.051 9.88641 139.061 9.91247C139.072 9.93853 139.088 9.9622 139.108 9.9819C139.129 10.0016 139.153 10.0169 139.18 10.0267C139.207 10.0366 139.236 10.0408 139.265 10.039H142.928C143.043 10.039 143.153 10.0829 143.235 10.161C143.316 10.2392 143.362 10.3451 143.362 10.4556V13.4312C143.362 13.5417 143.316 13.6476 143.235 13.7257C143.153 13.8039 143.043 13.8478 142.928 13.8478L139.265 13.8716Z" fill="#020452"/>
</svg>